<svg xmlns="http://www.w3.org/2000/svg" viewBox="0 0 240 660">
  <defs>
    <filter id="ds2" x="-40%" y="-40%" width="180%" height="180%">
      <feDropShadow dx="0" dy="8" stdDeviation="10" flood-color="#1f2a5e" flood-opacity="0.14"/>
    </filter>
  </defs>

  <!-- Baguette -->
  <g filter="url(#ds2)" transform="rotate(24 120 130)">
    <path d="M52 196 q-22 -88 68 -150 q34 -22 52 0 q16 22 -12 54 q-56 66 -86 104 q-16 16 -22 -8 z" fill="#e2a25c"/>
    <path d="M84 96 l34 18 M104 70 l32 20 M128 48 l28 20" stroke="#b9763a" stroke-width="7" stroke-linecap="round"/>
    <path d="M58 186 q-14 -76 60 -134" stroke="#f0c08a" stroke-width="8" fill="none" stroke-linecap="round" opacity="0.7"/>
  </g>

  <!-- Cartón de huevos -->
  <g filter="url(#ds2)" transform="rotate(-6 120 360)">
    <rect x="38" y="330" width="164" height="64" rx="14" fill="#d9b88f"/>
    <rect x="38" y="322" width="164" height="22" rx="11" fill="#c8a276"/>
    <ellipse cx="74" cy="330" rx="22" ry="26" fill="#f7e8d2"/>
    <ellipse cx="120" cy="330" rx="22" ry="26" fill="#f3ddc0"/>
    <ellipse cx="166" cy="330" rx="22" ry="26" fill="#f7e8d2"/>
    <ellipse cx="68" cy="322" rx="6" ry="8" fill="#ffffff" opacity="0.5"/>
    <ellipse cx="114" cy="322" rx="6" ry="8" fill="#ffffff" opacity="0.5"/>
    <ellipse cx="160" cy="322" rx="6" ry="8" fill="#ffffff" opacity="0.5"/>
  </g>

  <!-- Botella de aceite -->
  <g filter="url(#ds2)" transform="rotate(7 120 540)">
    <rect x="100" y="424" width="40" height="26" rx="7" fill="#b65f3e"/>
    <path d="M102 450 q-30 24 -30 58 l0 96 q0 20 20 20 l56 0 q20 0 20 -20 l0 -96 q0 -34 -30 -58 z" fill="#f0b73a"/>
    <path d="M102 450 q-30 24 -30 58 l0 12 l96 0 l0 -12 q0 -34 -30 -58 z" fill="#e8a722"/>
    <rect x="72" y="530" width="96" height="52" fill="#fdf4dd" opacity="0.9"/>
    <ellipse cx="120" cy="556" rx="22" ry="16" fill="#3f8f47" opacity="0.8"/>
    <path d="M86 470 q-8 24 -8 44" stroke="#ffd779" stroke-width="7" fill="none" stroke-linecap="round" opacity="0.8"/>
  </g>
</svg>
