<svg xmlns="http://www.w3.org/2000/svg" viewBox="0 0 240 660">
  <defs>
    <filter id="ds1" x="-40%" y="-40%" width="180%" height="180%">
      <feDropShadow dx="0" dy="8" stdDeviation="10" flood-color="#1f2a5e" flood-opacity="0.14"/>
    </filter>
  </defs>

  <!-- Hojas verdes -->
  <g filter="url(#ds1)" transform="rotate(-8 110 110)">
    <ellipse cx="96" cy="96" rx="52" ry="34" fill="#4f9d4f" transform="rotate(-24 96 96)"/>
    <ellipse cx="140" cy="78" rx="44" ry="28" fill="#6fbf73" transform="rotate(-10 140 78)"/>
    <ellipse cx="120" cy="128" rx="46" ry="30" fill="#3f8f47" transform="rotate(-30 120 128)"/>
    <path d="M76 120 q40 -30 86 -44" stroke="#2f7038" stroke-width="4" fill="none" opacity="0.5"/>
  </g>

  <!-- Botella de leche -->
  <g filter="url(#ds1)" transform="rotate(6 110 330)">
    <rect x="84" y="206" width="52" height="30" rx="8" fill="#3f63a0"/>
    <path d="M86 236 q-26 30 -26 64 l0 130 q0 22 22 22 l76 0 q22 0 22 -22 l0 -130 q0 -34 -26 -64 z" fill="#fdfaf2"/>
    <path d="M86 236 q-26 30 -26 64 l0 20 l120 0 l0 -20 q0 -34 -26 -64 z" fill="#f1ebdc"/>
    <rect x="60" y="336" width="120" height="58" fill="#e8eef9"/>
    <circle cx="120" cy="365" r="20" fill="#3f63a0" opacity="0.85"/>
    <path d="M112 365 q8 -10 16 0 q-8 10 -16 0 z" fill="#fdfaf2"/>
  </g>

  <!-- Queso -->
  <g filter="url(#ds1)" transform="rotate(-7 120 560)">
    <path d="M36 596 L204 522 q14 -6 18 8 l8 44 q2 12 -10 12 L48 612 q-14 0 -12 -16 z" fill="#f5c531"/>
    <path d="M36 596 L204 522 q12 -4 16 4 L52 600 q-14 4 -16 -4 z" fill="#ffd95e"/>
    <circle cx="92" cy="584" r="11" fill="#d9a614"/>
    <circle cx="138" cy="566" r="9" fill="#d9a614"/>
    <circle cx="172" cy="580" r="7" fill="#d9a614"/>
    <circle cx="118" cy="598" r="6" fill="#d9a614"/>
  </g>
</svg>
