<?xml version="1.0" encoding="UTF-8"?>
<svg id="Layer_2" data-name="Layer 2" xmlns="http://www.w3.org/2000/svg" viewBox="0 0 1080 244.71">
  <defs>
    <style>
      .cls-1 {
        fill: #ff6139;
      }
    </style>
  </defs>
  <g id="Layer_1-2" data-name="Layer 1">
    <g id="Artwork_14" data-name="Artwork 14">
      <g id="Artwork_14-2" data-name="Artwork 14">
        <g>
          <path class="cls-1" d="M473.9,158.23c-18.69,0-27.63-14.84-27.63-30.35v-11.85c0-15.56,8.94-30.35,27.63-30.35,16.45,0,27.4,11.4,27.4,36.25s-10.95,36.3-27.4,36.3ZM487.27,58.01c-18.99,0-33.15,9.41-38.88,23.56h-2.12V4.71h-32.94v178.82h33.29l1.39-21.96h.39c5.73,13.98,19.89,23.56,38.88,23.56,29.25,0,48.91-21.46,48.91-63.56s-19.75-63.56-48.91-63.56Z"/>
          <path class="cls-1" d="M611.96,158.43c-16.67,0-27.36-11.89-27.36-36.07s10.95-36.03,27.58-36.03,27.18,11.85,27.18,36.03-11.22,36.07-27.63,36.07h.22ZM611.96,58.51c-38.8,0-61.38,25.57-61.38,63.43s24.63,63.21,61.38,63.21c38.58,0,61.15-25.3,61.15-63.21s-24.63-63.43-61.15-63.43Z"/>
          <polygon class="cls-1" points="800.69 61.18 762.33 61.18 738.58 97.26 737.22 97.26 713.26 61.18 673.12 61.18 714.35 119.98 669.06 181.96 706.94 181.96 736.09 141.18 737.45 141.18 765.2 181.96 804.97 181.96 760.56 119.1 800.69 61.18"/>
          <path class="cls-1" d="M992.29,128.68c0,16.23-9.88,29.68-26.94,29.68s-23.39-10.5-23.39-29.91V61.18h-32.94v75.5c0,30.75,15.02,47.3,42.82,47.3,17.26,0,31.8-8.3,37.64-23.98h1.58l1.32,21.96h34.28V61.18h-34.51l.13,67.5Z"/>
          <rect class="cls-1" x="1047.06" y="6.27" width="32.94" height="177.26"/>
          <path class="cls-1" d="M866.1,43.83c.61-2.87,1.81-5.58,3.5-7.96,1.79-2.34,4.17-4.15,6.88-5.23,3.55-1.32,7.31-1.94,11.08-1.83,2.44,0,4.87.21,7.27.63,1.61.27,3.2.62,4.77,1.07V3.22c-1.59-.63-3.24-1.1-4.91-1.41-3.56-.64-7.18-.91-10.79-.82-4.83,0-9.65.52-14.38,1.54-4.85,1-9.54,2.68-13.95,4.99-4.47,2.36-8.51,5.5-11.93,9.3-3.69,4.16-6.54,9.05-8.38,14.38-2.2,6.54-3.25,13.44-3.11,20.36v9.61h-15.22l-17.85,26.67h33.07v95.69h32.94v-95.69h29.8v-26.67h-29.8v-7.47c-.02-3.32.32-6.63,1.01-9.88Z"/>
          <path class="cls-1" d="M236.18,161.48l54.34-80.91-19.34-28.8h-137.28l-22.9,34.1-15.79-23.53,22.9-34.1h137.19L236.35,0H98.58l-54.21,80.76,48.69,72.52-8.2,12.25c-1.82,2.65-4.6,4.49-7.75,5.12-3.15.63-6.43,0-9.13-1.74l-37.95-25.12L0,188.79l9.76,7.53c6-6.29,13.04-11.51,20.8-15.41,3.84-1.98,8.13-2.89,12.44-2.65,4.31.24,8.47,1.63,12.06,4.03l2.85,1.87c4.96,3.31,10.79,5.06,16.75,5.03,5,.02,9.93-1.19,14.36-3.52,4.43-2.33,8.21-5.71,11.03-9.85l9.58-14.25,126.55-.09Z"/>
          <path class="cls-1" d="M211.83,197.25c-.03-9.68-3.58-19.02-9.99-26.27h-24.8l10.93,11.69c3.69,3.96,5.75,9.17,5.75,14.58v47.46h54.15l.85-12.31c-8.5-1.49-16.69-4.42-24.22-8.65-3.8-2.11-6.96-5.2-9.15-8.95-2.19-3.75-3.33-8.02-3.3-12.37l-.22-5.17Z"/>
        </g>
      </g>
    </g>
  </g>
</svg>